<?xml version="1.0" encoding="UTF-8"?>
<svg width="13px" height="30px" viewBox="0 0 13 30" version="1.1" xmlns="http://www.w3.org/2000/svg" xmlns:xlink="http://www.w3.org/1999/xlink">
    <!-- Generator: Sketch 42 (36781) - http://www.bohemiancoding.com/sketch -->
    <title>Group 10</title>
    <desc>Created with Sketch.</desc>
    <defs></defs>
    <g id="Page-1" stroke="none" stroke-width="1" fill="none" fill-rule="evenodd">
        <g id="Group-10" transform="translate(5.786902, 15.000000) scale(-1, 1) translate(-5.786902, -15.000000) translate(-0.713098, 0.000000)" fill-rule="nonzero" fill="#FFFFFF">
            <g id="Page-1">
                <g>
                    <g id="Group-10">
                        <g id="2035_m3">
                            <path d="M8.01439709,22.9106445 C7.97752079,22.689605 7.94067568,22.4684407 7.90390852,22.2472141 C8.587921,22.2571933 9.31852391,22.324553 10.0486279,22.4557796 C9.69817048,22.7047609 9.35787942,22.9588565 9.02968815,23.2145738 C8.74197505,23.4387942 8.45993763,23.6695634 8.18220374,23.9052599 C8.17259875,23.8499688 8.16294699,23.7946622 8.15338098,23.7393399 C8.16294699,23.7946622 8.17259875,23.8499688 8.18220374,23.9052599 C8.01386694,24.0480249 7.84752599,24.1930977 7.68280665,24.3399168 C6.93767152,24.2073805 6.18860707,24.0820166 5.43735967,23.9787318 C5.42301455,23.4581913 5.40037422,22.936341 5.37024948,22.4146154 C6.06910603,22.3218711 6.75935551,22.2666736 7.41492723,22.2493971 C7.57459459,22.2452807 7.73800416,22.244657 7.90390852,22.2472141 C7.94067568,22.4684407 7.97752079,22.689605 8.01439709,22.9106445 Z M8.56255198,24.4991242 C8.46785863,24.4818087 8.37308732,24.464501 8.27825364,24.4471933 C8.24569647,24.2665696 8.21370062,24.0858836 8.18220374,23.9052599 C8.45993763,23.6695634 8.74197505,23.4387942 9.02968815,23.2145738 C9.35787942,22.9588565 9.69817048,22.7047609 10.0486279,22.4557796 C10.0712682,22.459896 10.0938462,22.4640748 10.1164241,22.468316 C10.299106,22.9371518 10.4980042,23.3996881 10.712183,23.8561746 C10.7080042,23.9423077 10.7038565,24.0284252 10.6997167,24.1145426 C10.7038565,24.0284252 10.7080042,23.9423077 10.712183,23.8561746 C10.8971102,24.2503534 11.0930146,24.6399168 11.2982121,25.0254886 C11.0859044,24.9816424 10.8734719,24.9384823 10.6609148,24.8963825 C10.6654054,24.809158 10.6698805,24.7219023 10.6742931,24.6346466 C10.6698805,24.7219023 10.6654054,24.809158 10.6609148,24.8963825 C10.3585759,24.8364449 10.0560811,24.7779106 9.75360187,24.7204678 C10.0560811,24.7779106 10.3585759,24.8364449 10.6609148,24.8963825 C10.6376507,25.3445114 10.6128274,25.792578 10.5883784,26.2407069 C10.4779522,26.2173805 10.3673545,26.1944906 10.2564761,26.1722479 C10.3673545,26.1944906 10.4779522,26.2173805 10.5883784,26.2407069 C10.5701663,26.573264 10.5521414,26.9059459 10.5351767,27.2386279 C10.3538358,27.3022765 10.1738358,27.3683108 9.99551975,27.4369802 C10.1738358,27.3683108 10.3538358,27.3022765 10.5351767,27.2386279 C10.5090437,27.7513721 10.4855301,28.2642412 10.4672557,28.7771726 C10.085052,28.5180873 9.65357588,28.2974844 9.21523909,28.1138669 C9.28010395,27.997422 9.29195426,27.8669439 9.27442827,27.734657 C9.30620582,27.7205301 9.33801455,27.7064657 9.36991684,27.692526 C9.33801455,27.7064657 9.30620582,27.7205301 9.27442827,27.734657 C9.24586279,27.5199168 9.13933472,27.3004366 9.05351351,27.127921 C8.94954262,26.9192308 8.82785863,26.7200832 8.7177131,26.5148233 C8.66619543,26.418711 8.62191268,26.3186694 8.58237006,26.2167568 C8.56503119,26.1036798 8.54781705,25.9906653 8.52935551,25.8775884 C8.76255717,25.9114553 8.99535343,25.9475364 9.22764293,25.9858706 C8.99535343,25.9475364 8.76255717,25.9114553 8.52935551,25.8775884 C8.45120582,25.3999584 8.36401247,24.9235135 8.27825364,24.4471933 C8.37308732,24.464501 8.46785863,24.4818087 8.56255198,24.4991242 Z M5.42066788,27.144605 C5.41911642,27.1851767 5.41755717,27.2257484 5.41602911,27.2663202 C5.22923077,27.249605 5.04212058,27.2350104 4.85482328,27.2218503 C5.04686071,27.0001247 5.24176715,26.7809563 5.43935551,26.5642827 C5.4372973,26.640842 5.4352079,26.7174012 5.4329158,26.7938669 C5.4352079,26.7174012 5.4372973,26.640842 5.43935551,26.5642827 C5.7293763,26.2461954 6.02582121,25.9340956 6.32825364,25.6279834 C6.66261954,25.6554262 6.99661123,25.687921 7.32997921,25.7248441 C7.2631185,25.7671933 7.19700624,25.810104 7.13226611,25.8535759 C6.95301455,25.9739501 6.78305613,26.1099168 6.63692308,26.2690852 C6.56881497,26.3433056 6.51068607,26.4262578 6.46471933,26.5156341 C6.38444906,26.6723077 6.45012474,26.7914345 6.51523909,26.9356965 C6.58490644,27.0901247 6.57810811,27.2385031 6.51455301,27.3923701 C6.14993763,27.3406029 5.78357588,27.2993139 5.41602911,27.2663202 C5.41755717,27.2257484 5.41911642,27.1851767 5.42066788,27.144605 Z M7.85067568,3.69851351 C8.0579158,3.83769231 8.26718295,3.97378378 8.47740125,4.10844075 C8.36965696,4.29782744 8.26239605,4.48545218 8.15803534,4.6712448 C8.26239605,4.48545218 8.36965696,4.29782744 8.47740125,4.10844075 C8.89241164,4.37438669 9.31116424,4.63484407 9.72567568,4.90178794 C9.72043659,4.90565489 9.71463617,4.90889813 9.70765073,4.91089397 C9.68276507,4.91781705 9.65825364,4.92205821 9.63380457,4.92548857 C9.67683992,4.96079002 9.7175052,4.99846154 9.75449064,5.04180873 C9.77669439,5.06769231 9.75866944,5.11272349 9.72474012,5.11602911 C9.6966736,5.11871102 9.66910603,5.11908524 9.64178794,5.11858628 C9.67796258,5.15326403 9.71482328,5.18731809 9.75106029,5.22212058 C9.77588358,5.24600832 9.77538462,5.30214137 9.73035343,5.30401247 C9.68650728,5.30582121 9.85128898,5.46530146 9.86370062,5.47727651 C9.95370062,5.56328482 10.0457588,5.6443659 10.1459252,5.71864865 C10.1806653,5.74440748 10.1598337,5.81338877 10.112869,5.8022869 C10.0538669,5.78844075 9.99623701,5.77515593 9.93773389,5.76573805 C10.0160083,5.82642412 10.1124948,5.86808732 10.1987526,5.91056133 C10.2496466,5.93557173 10.2309979,6.00530146 10.1754262,6.00442827 C10.1681913,6.00430353 10.1610187,6.00380457 10.1539085,6.00361746 C10.1676299,6.01365904 10.1810395,6.02413721 10.1936383,6.03617464 C10.2303742,6.07135135 10.2092931,6.12548857 10.1580873,6.1254262 L10.1502287,6.1254262 C10.1723077,6.18773389 10.220894,6.24037422 10.2541372,6.29731809 C10.2825156,6.34602911 10.3033472,6.39966736 10.3221206,6.4537422 C10.3141996,6.49927235 10.3060915,6.54467775 10.2981705,6.5902079 C10.2905613,6.63405405 10.282578,6.67802495 10.2748441,6.72193347 C9.31765073,6.51841996 8.35883576,6.3208316 7.40987526,6.08575884 C7.48316008,5.94140333 7.55691268,5.7972973 7.6312422,5.65349532 C7.55691268,5.7972973 7.48316008,5.94140333 7.40987526,6.08575884 C6.96860707,5.97642412 6.52952183,5.85891892 6.0937422,5.72887734 C6.05575884,5.19006237 6.00891892,4.65193347 5.94760915,4.11486486 C6.08575884,3.75106029 6.20794179,3.38164241 6.3164657,3.00711019 C6.5295842,3.02307692 6.74257796,3.04004158 6.95550936,3.05806653 C7.00244283,3.09480249 7.04931393,3.13088358 7.09609148,3.1662396 C7.04931393,3.13088358 7.00244283,3.09480249 6.95550936,3.05806653 C7.56966736,3.11002079 8.18295218,3.16983368 8.79536383,3.2406237 C8.76596289,3.21245973 8.74172277,3.19137463 8.71920998,3.16920998 C8.7372973,3.17644491 8.75538462,3.1837422 8.77397089,3.19060291 C8.82293139,3.20850312 8.85686071,3.1543659 8.83153846,3.1139501 C8.70274428,2.90862786 8.53858628,2.73617464 8.37018711,2.56340956 C8.23621622,2.42600832 8.00975052,2.28012474 7.95143451,2.09532225 L7.94862786,2.09014553 C8.14322245,1.86617464 8.24239085,1.52900208 8.29378378,1.26268191 C8.33301455,1.0585447 8.38715177,0.820602911 8.32752599,0.614906445 C8.27039501,0.417754678 8.14222453,0.284656965 7.97139293,0.176444906 C7.60403326,-0.0561330561 7.17642412,0.0694178794 6.85640333,0.323513514 C6.8056341,0.65962578 6.76640333,0.998482328 6.70727651,1.32779626 C6.62906445,1.76326403 6.53538462,2.19224532 6.42492723,2.61480249 C6.60112266,2.7716632 6.7787526,2.9197921 6.95550936,3.05806653 C7.56966736,3.11002079 8.18295218,3.16983368 8.79536383,3.2406237 C8.79356838,3.2388804 8.79177075,3.2371489 8.78997187,3.23542799 L7.85067568,3.69851351 Z M3.47764553,28.9103248 C3.43461019,28.9675572 3.3918711,29.0252183 3.34927235,29.0830977 C3.14713098,29.0083784 2.97636175,28.8817048 2.89740125,28.6590437 C2.79785863,28.3780042 3.03349272,28.2489605 3.22122661,28.0950312 C3.14388773,28.0359044 3.09642412,27.9614969 3.1285447,27.8519751 C3.18841996,27.6477131 3.2639501,27.4563617 3.37409563,27.2748025 C3.37908524,27.266632 3.38725572,27.2672557 3.39318087,27.2715593 C3.40085239,27.2291476 3.40690229,27.1864865 3.41201663,27.143763 C3.89320166,27.1640956 4.37463617,27.1879834 4.85482328,27.2218503 C4.64039501,27.4693659 4.42931913,27.7198441 4.22150988,27.9729886 C4.42931913,27.7198441 4.64039501,27.4693659 4.85482328,27.2218503 C5.04212058,27.2350104 5.22923077,27.249605 5.41602911,27.2663202 C5.39276507,27.8769854 5.36862786,28.4864033 5.34798337,29.0953846 C5.25293139,29.1076715 5.15918919,29.1180249 5.06987526,29.1296258 C4.61164241,29.1890644 4.14424116,29.2306029 3.68438669,29.1640541 C3.56968815,29.1474012 3.45523909,29.1222661 3.34927235,29.0830977 C3.3918711,29.0252183 3.43461019,28.9675572 3.47764553,28.9103248 Z M3.64036902,4.45760395 C3.59069127,4.52658524 3.54087318,4.59545738 3.49110187,4.66434511 C3.10902287,4.43906445 2.74297297,4.18340956 2.38534304,3.89288981 C2.2922869,3.8172973 2.2010395,3.74214137 2.10891892,3.66954262 C2.23858628,3.52203742 2.37286902,3.38363825 2.52112266,3.24972973 C2.60295218,3.17582121 2.6987526,3.10920998 2.774158,3.02931393 C2.79255717,3.0097921 2.69345114,2.86428274 2.68609148,2.82692308 L2.68540541,2.81956341 C3.34465696,2.8402079 4.00241164,2.86690229 4.65879418,2.90151767 C4.52709979,3.13219335 4.38778067,3.35925156 4.2422947,3.58369802 C4.38778067,3.35925156 4.52709979,3.13219335 4.65879418,2.90151767 C5.03800416,2.92147609 5.41690229,2.94405405 5.79523909,2.96962578 C5.82717256,3.18324324 5.857921,3.39704782 5.88623701,3.61116424 C5.90837838,3.77893971 5.92852391,3.94683992 5.94760915,4.11486486 C5.77047817,4.58176715 5.56758836,5.03962578 5.33656965,5.48831601 C5.24476091,5.45719335 5.15301455,5.42569647 5.06158004,5.39320166 C4.50068607,5.19380457 3.98257796,4.95411642 3.49110187,4.66434511 C3.54087318,4.59545738 3.59069127,4.52658524 3.64036902,4.45760395 Z M4.26776507,7.26280665 C4.00992723,7.64566528 3.74139293,8.02191268 3.46596674,8.39351351 C3.3997921,8.36089397 3.3337422,8.32790021 3.26781705,8.2947817 C3.42904366,8.03488565 3.61160083,7.76257796 3.68656965,7.46781705 C3.69118503,7.44985447 3.70515593,7.44280665 3.72012474,7.44305613 C3.73446985,7.36409563 3.74513514,7.28251559 3.74650728,7.20392931 L3.72985447,7.21683992 C3.69798337,7.24266112 3.64690229,7.21446985 3.65276507,7.17349272 C3.66817048,7.06690229 3.70178794,6.96224532 3.72517672,6.85715177 C3.69798337,6.87954262 3.67091476,6.90224532 3.64372141,6.92488565 C3.60461538,6.95731809 3.55908524,6.91203742 3.57068607,6.87031185 C3.60866944,6.73259875 3.67590437,6.60031185 3.7206237,6.46490644 C3.69923077,6.45742204 3.68120582,6.43671518 3.68632017,6.41326403 C3.69835759,6.35756757 3.72972973,6.30467775 3.75779626,6.25135135 C3.72486486,6.28016632 3.67927235,6.24567568 3.68133056,6.20769231 C3.68607069,6.12343035 3.70247401,6.0447817 3.72442827,5.96370062 C3.74176715,5.8995842 3.77463617,5.8352183 3.79328482,5.76929314 C3.77288981,5.79779626 3.75293139,5.82717256 3.72698545,5.84943867 C3.69785863,5.87444906 3.64459459,5.85386694 3.64216216,5.81463617 C3.6312474,5.6362578 3.58322245,5.46243243 3.59170478,5.2831185 L3.59388773,5.27438669 C3.53538462,5.28517672 3.47494802,5.2916632 3.41014553,5.28929314 C3.30704782,5.28548857 3.18074844,5.28099792 3.05482328,5.26272349 C3.20114345,5.0639501 3.3464657,4.86442827 3.49110187,4.66434511 C3.98257796,4.95411642 4.50068607,5.19380457 5.06158004,5.39320166 C5.15301455,5.42569647 5.24476091,5.45719335 5.33656965,5.48831601 C5.28424116,5.58991684 5.23057173,5.69109667 5.175421,5.79180094 C5.23057173,5.69109667 5.28424116,5.58991684 5.33656965,5.48831601 C5.58767152,5.57338877 5.8402079,5.65316008 6.0937422,5.72887734 C6.157921,6.63866944 6.19783784,7.5502079 6.24162162,8.46168399 C6.08388773,8.78831601 5.92615385,9.11494802 5.76767152,9.44120582 C4.98810811,9.10652807 4.21914761,8.76474012 3.46596674,8.39351351 C3.74139293,8.02191268 4.00992723,7.64566528 4.26776507,7.26280665 Z M5.33151767,1.49613306 C5.25417879,1.40476091 5.17846154,1.312079 5.10442827,1.21814969 C5.12002079,1.20929314 5.14266112,1.21135135 5.15295218,1.2268815 C5.16717256,1.2483368 5.17153846,1.27259875 5.17390852,1.29767152 L5.18476091,1.29505198 C5.18494802,1.28837838 5.18519751,1.282079 5.18519751,1.27634096 C5.18525988,1.2483368 5.18582121,1.19719335 5.21095634,1.17935551 C5.22330561,1.1706237 5.23902287,1.1693763 5.25180873,1.1785447 C5.27725572,1.19663202 5.2787526,1.24309771 5.28024948,1.27446985 C5.28711019,1.27303534 5.29390852,1.27135135 5.30076923,1.26997921 C5.30108108,1.25638254 5.30158004,1.24284823 5.30239085,1.22956341 C5.3045738,1.19413721 5.30607069,1.15540541 5.33189189,1.12889813 C5.34155925,1.11910603 5.35665281,1.12602911 5.36239085,1.13588358 C5.37779626,1.16276507 5.37399168,1.19762994 5.37561331,1.22769231 C5.3760499,1.23673597 5.3766736,1.24615385 5.3772973,1.25538462 C5.39245322,1.25257796 5.40748441,1.2495842 5.42264033,1.24677755 C5.39363825,1.33054054 5.36307692,1.41361746 5.33151767,1.49613306 C5.36307692,1.41361746 5.39363825,1.33054054 5.42264033,1.24677755 L5.43280665,1.24484407 C5.45906445,1.24029106 5.48557173,1.23723493 5.51189189,1.23336798 C5.54507277,1.42621622 5.57794179,1.61925156 5.61037422,1.81222453 C5.5156341,1.70893971 5.42251559,1.6035343 5.33151767,1.49613306 Z M3.13834459,18.6109927 C2.91696985,18.8944647 2.69485447,19.1822557 2.46985447,19.4685655 C2.43237006,19.4696881 2.39444906,19.4355717 2.4135343,19.3929106 C2.48893971,19.2253222 2.54918919,19.0526819 2.60731809,18.8783576 C2.6229106,18.83158 2.64106029,18.7859252 2.65945946,18.7405821 C2.52654886,18.9401663 2.36912682,19.1155509 2.14839917,19.2455301 C2.09095634,19.2793971 2.02160083,19.2188358 2.06357588,19.159896 C2.20908524,18.9551351 2.35746362,18.7556133 2.48557173,18.5392516 C2.56440748,18.4060915 2.64954262,18.2653846 2.70137214,18.1160707 C2.64885655,18.1872973 2.60133056,18.262079 2.55960499,18.341289 C2.52623701,18.404657 2.43049896,18.3837006 2.43686071,18.3086694 C2.47035343,17.913368 2.53247401,17.5218087 2.58074844,17.1282536 C2.6014553,16.9597297 2.61286902,16.793264 2.61555094,16.6241788 C3.24505198,16.7078794 3.87343035,16.802869 4.50037422,16.9047193 C4.38642412,17.0519127 4.27141372,17.1984823 4.15514813,17.3442957 C4.27141372,17.1984823 4.38642412,17.0519127 4.50037422,16.9047193 C4.59180873,16.9195634 4.68324324,16.9344075 4.77467775,16.9496258 C4.80617464,17.1393555 4.8366736,17.3292723 4.8649896,17.519501 C4.93858628,18.0133472 5.00519751,18.5126195 5.06594595,19.0150728 C4.45085239,19.4593347 3.83189189,19.8983576 3.21692308,20.3414969 C3.22908524,20.2913514 3.24068607,20.2410187 3.25060291,20.1902495 C3.14351351,20.3378794 3.03355509,20.4812682 2.8756341,20.5695842 C2.80839917,20.5611642 2.74116424,20.5524948 2.67392931,20.5443243 C2.7562578,20.3909563 2.84301455,20.2395842 2.93089397,20.0886486 C2.90519751,20.0802287 2.88517672,20.0544075 2.89914761,20.024158 C2.95303534,19.9080873 3.01422037,19.7952599 3.0722869,19.6812474 C2.88411642,19.9051559 2.67717256,20.1122869 2.45182952,20.3007069 C2.41365904,20.3325156 2.35035343,20.2870478 2.3724948,20.240894 C2.56796258,19.8347401 2.81295218,19.4552807 3.01777547,19.0544283 C2.87731809,19.2031185 2.75675676,19.3705198 2.62160083,19.5251975 C2.57819127,19.5750312 2.50022869,19.5177755 2.53914761,19.4629522 C2.59590437,19.3829314 2.65359667,19.2967983 2.69800416,19.2055509 C2.63463617,19.2857588 2.57463617,19.3689605 2.51108108,19.4484823 C2.49985447,19.4625156 2.48488565,19.4680665 2.46985447,19.4685655 C2.69485447,19.1822557 2.91696985,18.8944647 3.13834459,18.6109927 Z M0.199373701,16.3665982 C0.190930353,16.3658264 0.182401247,16.3650312 0.173950104,16.3642827 C0.191538462,16.2687318 0.211309771,16.1729314 0.23014553,16.0773181 C0.318399168,15.6293139 0.403409563,15.1900416 0.542931393,14.7541372 C0.593388773,14.5965281 0.648648649,14.4402287 0.705467775,14.2843035 C1.44636175,14.2309771 2.18738046,14.2339085 2.92683992,14.2786902 C2.2266736,15.0614969 1.42590437,15.7481289 0.588773389,16.3988358 C0.467276507,16.3882952 0.345779626,16.3780665 0.224282744,16.3687734 C0.216174636,16.3681185 0.207817048,16.3673701 0.199373701,16.3665982 C0.207817048,16.3673701 0.216174636,16.3681185 0.224282744,16.3687734 C0.345779626,16.3780665 0.467276507,16.3882952 0.588773389,16.3988358 C0.435031185,16.5183992 0.27997921,16.6368399 0.124116424,16.7544075 C0.130665281,16.6246778 0.14993763,16.4945738 0.173950104,16.3642827 C0.182401247,16.3650312 0.190930353,16.3658264 0.199373701,16.3665982 Z M7.84305873,21.3836227 C7.81490644,21.3784927 7.78674636,21.3733472 7.75858628,21.3681705 C7.65074844,20.7126611 7.54422037,20.0562162 7.44074844,19.3990229 C7.74929314,19.1476091 8.06681913,18.9090437 8.3933264,18.6850728 C8.52293139,18.5961331 8.65359667,18.5081913 8.7850104,18.4209979 C8.87544699,18.46921 8.96594595,18.5173597 9.0568815,18.5647609 C9.22178794,19.6621622 9.49540541,20.7233888 9.85309771,21.7538669 C9.53217256,21.6939293 9.21121622,21.6344439 8.89026767,21.5753248 C9.21121622,21.6344439 9.53217256,21.6939293 9.85309771,21.7538669 C9.93074844,21.977526 10.0125156,22.1996881 10.0979002,22.4205405 C10.0813721,22.4322661 10.0651559,22.4440541 10.0486279,22.4557796 C9.31852391,22.324553 8.587921,22.2571933 7.90390852,22.2472141 C7.85519751,21.9543867 7.80679834,21.6613721 7.75858628,21.3681705 C7.78674636,21.3733472 7.81490644,21.3784927 7.84305873,21.3836227 Z M7.72997401,15.0160915 C7.41700104,14.9482952 7.10307692,14.8823077 6.78835759,14.8192516 C6.74850312,14.4977963 6.7102079,14.176341 6.6735343,13.8546985 C6.85047817,13.5896881 7.02611227,13.3238669 7.20081081,13.0572349 C7.77548857,13.3402079 8.35814969,13.6083992 8.94841996,13.861185 C8.96762994,13.8694179 8.98702703,13.8777755 9.00629938,13.8860083 C8.9564657,14.3496674 8.91885655,14.813763 8.89740125,15.2781081 C8.85879418,15.269158 8.82029626,15.2599428 8.78175936,15.2507822 C8.82029626,15.2599428 8.85879418,15.269158 8.89740125,15.2781081 C8.88642412,15.5169854 8.88006237,15.7558628 8.87806653,15.9948649 C8.8481289,16.0218087 8.81826923,16.0487838 8.78838617,16.0757588 C8.81826923,16.0487838 8.8481289,16.0218087 8.87806653,15.9948649 C8.87622661,16.2106653 8.87817568,16.4265281 8.8843737,16.6424142 C8.87817568,16.4265281 8.87622661,16.2106653 8.87806653,15.9948649 C9.0887526,15.8051975 9.29850312,15.6150936 9.50706861,15.4243035 C9.86762994,15.5136798 10.2266944,15.6065489 10.5841996,15.7034096 C10.5783368,16.2312474 10.5943035,16.7603326 10.6311642,17.2875468 C10.310894,17.4692308 9.99399168,17.6559044 9.68151767,17.8481913 C9.43796258,17.7989813 9.19434511,17.7507069 8.95079002,17.7033056 C8.94420998,17.6347297 8.93797297,17.5660135 8.93217256,17.4971492 C8.93797297,17.5660135 8.94420998,17.6347297 8.95079002,17.7033056 C8.37954262,17.5923493 7.80848233,17.4860707 7.23898129,17.3823493 C7.48783784,17.1849168 7.73432432,16.9845686 7.97780146,16.7805405 C7.73432432,16.9845686 7.48783784,17.1849168 7.23898129,17.3823493 C7.20343035,17.3758628 7.16787942,17.3693139 7.13226611,17.3628274 C7.00914761,16.5159044 6.89357588,15.667921 6.78835759,14.8192516 C7.10307692,14.8823077 7.41700104,14.9482952 7.72997401,15.0160915 Z M7.37269491,17.6212734 C7.29751559,17.5739501 7.222921,17.5255821 7.14873181,17.4764657 C7.14779626,17.4695426 7.14679834,17.4626195 7.14573805,17.4557588 C7.17679834,17.431185 7.20798337,17.4069854 7.23898129,17.3823493 C7.80848233,17.4860707 8.37954262,17.5923493 8.95079002,17.7033056 C8.96912682,17.8933472 8.99151767,18.082079 9.01627859,18.2699376 C8.93906445,18.3202079 8.86160083,18.3701663 8.7850104,18.4209979 C8.5852079,18.3146258 8.38643451,18.2065073 8.18889293,18.0963929 C8.38643451,18.2065073 8.5852079,18.3146258 8.7850104,18.4209979 C8.65359667,18.5081913 8.52293139,18.5961331 8.3933264,18.6850728 C8.06681913,18.9090437 7.74929314,19.1476091 7.44074844,19.3990229 C7.34002079,18.7588565 7.24253638,18.1179418 7.14873181,17.4764657 C7.222921,17.5255821 7.29751559,17.5739501 7.37269491,17.6212734 Z M4.26517672,14.4023077 C4.33029106,14.6830977 4.39259875,14.9643243 4.45222453,15.2459875 C4.16619543,14.9830353 3.88160083,14.72158 3.59569647,14.4683576 C3.53775468,14.417027 3.4793763,14.3656965 3.42118503,14.3144283 C3.70278586,14.338316 3.98419958,14.3680042 4.26517672,14.4023077 C4.15526076,13.9282674 4.03840923,13.4581689 3.915842,12.9890644 C4.04769231,12.7851767 4.17349272,12.5756757 4.29081081,12.3580042 C4.4143659,12.1287318 4.53567568,11.8981497 4.65580042,11.6670062 C5.27600832,12.0415385 5.90825364,12.3955509 6.55172557,12.7292308 C6.58964657,13.1045114 6.63074844,13.479605 6.6735343,13.8546985 C6.48717256,14.1338669 6.29893971,14.4117256 6.10883576,14.6883992 C5.4966736,14.5756965 4.88176715,14.477526 4.26517672,14.4023077 C4.26496332,14.4013871 4.26474989,14.4004665 4.26453643,14.3995459 L4.26517672,14.4023077 Z M7.20081081,13.0572349 C7.71274428,12.275738 8.21744283,11.4885655 8.72738046,10.702578 C8.96600832,10.8058628 9.20463617,10.9092723 9.44338877,11.0124948 C9.26607069,11.9675052 9.10964657,12.9258212 9.00629938,13.8860083 C8.98702703,13.8777755 8.96762994,13.8694179 8.94841996,13.861185 C8.35814969,13.6083992 7.77548857,13.3402079 7.20081081,13.0572349 Z M6.24162162,8.46168399 C6.62557173,7.66683992 7.01045738,6.87243243 7.40987526,6.08575884 C8.35883576,6.3208316 9.31765073,6.51841996 10.2748441,6.72193347 C10.1440541,7.46407484 9.99592516,8.20952183 9.84586279,8.95777547 C9.62943867,9.30997921 9.40746362,9.66099792 9.17800416,10.0109563 C9.02700624,10.2412266 8.87706861,10.4718711 8.72738046,10.702578 C8.35079002,10.5395426 7.97419958,10.3770062 7.59698545,10.2167775 C7.1639501,10.0328482 6.73297297,9.85185031 6.30486486,9.67029106 C6.28135135,9.26756757 6.26108108,8.86465696 6.24162162,8.46168399 Z M10.483659,14.5193763 C9.98582121,14.3071933 9.49303534,14.0945738 9.00629938,13.8860083 C9.10964657,12.9258212 9.26607069,11.9675052 9.44338877,11.0124948 C9.98850312,11.2481289 10.5344283,11.4822661 11.0830353,11.7092931 C10.8658004,12.5708108 10.7221622,13.4618919 10.6465696,14.365447 C10.5922453,14.4167775 10.5381081,14.4681705 10.483659,14.5193763 Z M8.72738046,10.702578 C8.87706861,10.4718711 9.02700624,10.2412266 9.17800416,10.0109563 C9.40746362,9.66099792 9.62943867,9.30997921 9.84586279,8.95777547 C9.7089605,9.64060291 9.57093555,10.3256757 9.44338877,11.0124948 C9.20463617,10.9092723 8.96600832,10.8058628 8.72738046,10.702578 Z M9.50706861,15.4243035 C9.83513514,15.1241788 10.1607692,14.8227443 10.483659,14.5193763 C10.5324324,14.5401455 10.5810811,14.5609148 10.6299792,14.581684 C10.6033472,14.9540956 10.5883784,15.3284407 10.5841996,15.7034096 C10.2266944,15.6065489 9.86762994,15.5136798 9.50706861,15.4243035 Z M10.6299792,14.581684 C10.5810811,14.5609148 10.5324324,14.5401455 10.483659,14.5193763 C10.5381081,14.4681705 10.5922453,14.4167775 10.6465696,14.365447 C10.6405821,14.437422 10.6351559,14.5095218 10.6299792,14.581684 Z M4.45222453,15.2459875 C4.70638254,15.4796258 4.96185031,15.714262 5.22049896,15.9457796 C5.05571726,16.171684 4.88806653,16.3959044 4.71866944,16.6189397 C4.63821206,16.1600832 4.5489605,15.702474 4.45222453,15.2459875 Z M6.10883576,14.6883992 C5.81831601,15.1111435 5.52318087,15.5308316 5.22049896,15.9457796 C4.96185031,15.714262 4.70638254,15.4796258 4.45222453,15.2459875 C4.39259875,14.9643243 4.33029106,14.6830977 4.26517672,14.4023077 C4.88176715,14.477526 5.4966736,14.5756965 6.10883576,14.6883992 Z M3.915842,12.9890644 C4.03864865,13.4590852 4.15571726,13.930104 4.26517672,14.4023077 C3.98419958,14.3680042 3.70278586,14.338316 3.42118503,14.3144283 C3.32226611,14.2272349 3.22309771,14.1400416 3.12361746,14.0527859 C3.40814969,13.7176715 3.67334719,13.3640956 3.915842,12.9890644 Z M5.94760915,4.11486486 C6.00891892,4.65193347 6.05575884,5.19006237 6.0937422,5.72887734 C5.8402079,5.65316008 5.58767152,5.57338877 5.33656965,5.48831601 C5.56758836,5.03962578 5.77047817,4.58176715 5.94760915,4.11486486 Z M5.76767152,9.44120582 C5.40511435,10.1876507 5.03806653,10.9315385 4.65580042,11.6670062 C4.19856549,11.390894 3.74819127,11.1034927 3.30486486,10.8044283 C3.15910603,10.312079 3.00891892,9.82085239 2.85592516,9.33049896 C2.88268191,9.29507277 2.90700624,9.25864865 2.92528067,9.21960499 C2.89515593,9.2339501 2.86496881,9.24823285 2.83459459,9.26214137 C2.83178794,9.25322245 2.82904366,9.24424116 2.82623701,9.23532225 C3.04241164,8.95690229 3.25621622,8.67654886 3.46596674,8.39351351 C4.21914761,8.76474012 4.98810811,9.10652807 5.76767152,9.44120582 Z M5.61037422,1.81222453 C5.67517672,2.19760915 5.73760915,2.58324324 5.79523909,2.96962578 C5.41690229,2.94405405 5.03800416,2.92147609 4.65879418,2.90151767 C4.91669439,2.44989605 5.14496881,1.98405405 5.33151767,1.49613306 C5.42251559,1.6035343 5.5156341,1.70893971 5.61037422,1.81222453 Z M2.47272349,9.73440748 C2.57719335,9.5981289 2.74509356,9.47731809 2.85592516,9.33049896 C3.00891892,9.82085239 3.15910603,10.312079 3.30486486,10.8044283 C2.95446985,10.5679834 2.60831601,10.3248025 2.26727651,10.0736383 C2.32403326,9.95432432 2.39164241,9.84031185 2.47272349,9.73440748 Z M2.76336798,9.03486486 C2.78438669,9.1016632 2.80534304,9.16852391 2.82623701,9.23532225 C2.81419958,9.25085239 2.80222453,9.26638254 2.79012474,9.28191268 C2.75201663,9.29819127 2.71334719,9.31328482 2.67324324,9.32544699 C2.61773389,9.34222453 2.54850312,9.27661123 2.59740125,9.2247817 C2.6552183,9.16340956 2.71029106,9.09991684 2.76336798,9.03486486 Z M3.46596674,8.39351351 C3.25621622,8.67654886 3.04241164,8.95690229 2.82623701,9.23532225 C2.80534304,9.16852391 2.78438669,9.1016632 2.76336798,9.03486486 C2.93388773,8.82586279 3.08214137,8.59995842 3.22222453,8.3687526 C3.23700624,8.34424116 3.25247401,8.31954262 3.26781705,8.2947817 C3.3337422,8.32790021 3.3997921,8.36089397 3.46596674,8.39351351 Z M6.95550936,3.05806653 C6.74257796,3.04004158 6.5295842,3.02307692 6.3164657,3.00711019 C6.35419958,2.87694387 6.39056133,2.74621622 6.42492723,2.61480249 C6.60112266,2.7716632 6.7787526,2.9197921 6.95550936,3.05806653 Z M4.65580042,11.6670062 C4.53567568,11.8981497 4.4143659,12.1287318 4.29081081,12.3580042 C4.17349272,12.5756757 4.04769231,12.7851767 3.915842,12.9890644 C3.72505198,12.2583992 3.5197921,11.5302911 3.30486486,10.8044283 C3.74819127,11.1034927 4.19856549,11.390894 4.65580042,11.6670062 Z M2.84802474,9.23532225 C2.85252474,9.24962225 2.85692474,9.26402225 2.86142474,9.27832225 C2.83782474,9.28912225 2.81412474,9.29972225 2.79012474,9.31002225 C2.80952474,9.28512225 2.82872474,9.26022225 2.84802474,9.23532225 Z M6.3164657,3.00711019 C6.14276507,2.99407484 5.96906445,2.98135135 5.79523909,2.96962578 C5.73760915,2.58324324 5.67517672,2.19760915 5.61037422,1.81222453 C5.87226611,2.09787942 6.14675676,2.36719335 6.42492723,2.61480249 C6.39056133,2.74621622 6.35419958,2.87694387 6.3164657,3.00711019 Z M10.2748441,6.72193347 C10.282578,6.67802495 10.2905613,6.63405405 10.2981705,6.5902079 C10.3060915,6.54467775 10.3141996,6.49927235 10.3221206,6.4537422 C10.3320998,6.48268191 10.3417048,6.51168399 10.3510603,6.54024948 C10.396341,6.60361746 10.4215385,6.68139293 10.4437422,6.757921 C10.3874844,6.74588358 10.3312266,6.73390852 10.2748441,6.72193347 Z M6.30486486,9.67029106 C6.31397089,9.82602911 6.32345114,9.98170478 6.33367983,10.1373181 C6.39049896,11.0013929 6.46446985,11.8655301 6.55172557,12.7292308 C5.90825364,12.3955509 5.27600832,12.0415385 4.65580042,11.6670062 C5.03806653,10.9315385 5.40511435,10.1876507 5.76767152,9.44120582 C5.94623701,9.51785863 6.12530146,9.59413721 6.30486486,9.67029106 Z M5.74216216,21.0063617 C6.27343035,20.4281289 6.83962578,19.8886279 7.44074844,19.3990229 C7.54422037,20.0562162 7.65074844,20.7126611 7.75858628,21.3681705 C7.08779626,21.2458628 6.4156341,21.1231185 5.74216216,21.0063617 Z M5.79523909,2.96962578 C5.96906445,2.98135135 6.14276507,2.99407484 6.3164657,3.00711019 C6.20794179,3.38164241 6.08575884,3.75106029 5.94760915,4.11486486 C5.92852391,3.94683992 5.90837838,3.77893971 5.88623701,3.61116424 C5.857921,3.39704782 5.82717256,3.18324324 5.79523909,2.96962578 Z M8.27825364,24.4471933 C8.08004158,24.4111435 7.88158004,24.3752183 7.68280665,24.3399168 C7.84752599,24.1930977 8.01386694,24.0480249 8.18220374,23.9052599 C8.21370062,24.0858836 8.24569647,24.2665696 8.27825364,24.4471933 Z M6.0937422,5.72887734 C6.52952183,5.85891892 6.96860707,5.97642412 7.40987526,6.08575884 C7.01045738,6.87243243 6.62557173,7.66683992 6.24162162,8.46168399 C6.19783784,7.5502079 6.157921,6.63866944 6.0937422,5.72887734 Z M6.24162162,8.46168399 C6.26108108,8.86465696 6.28135135,9.26756757 6.30486486,9.67029106 C6.12530146,9.59413721 5.94623701,9.51785863 5.76767152,9.44120582 C5.92615385,9.11494802 6.08388773,8.78831601 6.24162162,8.46168399 Z M8.72738046,10.702578 C8.21744283,11.4885655 7.71274428,12.275738 7.20081081,13.0572349 C6.98326403,12.9501455 6.76690229,12.8408108 6.55172557,12.7292308 C6.46446985,11.8655301 6.39049896,11.0013929 6.33367983,10.1373181 C6.32345114,9.98170478 6.31397089,9.82602911 6.30486486,9.67029106 C6.73297297,9.85185031 7.1639501,10.0328482 7.59698545,10.2167775 C7.97419958,10.3770062 8.35079002,10.5395426 8.72738046,10.702578 Z M6.55172557,12.7292308 C6.76690229,12.8408108 6.98326403,12.9501455 7.20081081,13.0572349 C7.02611227,13.3238669 6.85047817,13.5896881 6.6735343,13.8546985 C6.63074844,13.479605 6.58964657,13.1045114 6.55172557,12.7292308 Z M6.92694387,17.3256549 C6.8431185,17.310499 6.75935551,17.2952807 6.67565489,17.2802495 C6.04384615,17.1664241 5.41004158,17.0548441 4.77467775,16.9496258 C4.75634096,16.8392931 4.73806653,16.7290229 4.71866944,16.6189397 C4.88806653,16.3959044 5.05571726,16.171684 5.22049896,15.9457796 C5.76804574,16.4358212 6.33068607,16.9099584 6.92694387,17.3256549 Z M9.71800416,4.8208316 C9.75661123,4.83817048 9.7537422,4.88120582 9.72567568,4.90178794 C9.31116424,4.63484407 8.89241164,4.37438669 8.47740125,4.10844075 C8.61773389,3.86176715 8.75887734,3.61203742 8.89553015,3.35956341 C8.92995842,3.40652807 8.96251559,3.45511435 8.99775468,3.50133056 C9.11632017,3.65725572 9.27442827,3.8143659 9.35264033,3.99573805 C9.37022869,4.0364657 9.32126819,4.07326403 9.28609148,4.04819127 C9.2460499,4.01962578 9.21087318,3.98382536 9.17557173,3.94839917 C9.17943867,3.95694387 9.18442827,3.96461538 9.18904366,3.97266112 C9.21,3.99941788 9.22989605,4.02711019 9.24948025,4.05492723 C9.27904366,4.0866736 9.31135135,4.11623701 9.34047817,4.14779626 C9.42567568,4.23991684 9.51218295,4.32948025 9.60929314,4.40925156 C9.64746362,4.44049896 9.62232848,4.49557173 9.57548857,4.49451143 C9.56345114,4.49426195 9.55172557,4.49301455 9.53987526,4.492079 C9.57623701,4.51347193 9.61428274,4.53286902 9.65538462,4.55158004 C9.69155925,4.56804574 9.69760915,4.6237422 9.65650728,4.63970894 C9.63523909,4.64787942 9.61440748,4.65361746 9.59363825,4.65829522 C9.62189189,4.67407484 9.64964657,4.69060291 9.67814969,4.70594595 C9.72112266,4.72927235 9.71513514,4.78428274 9.66760915,4.79706861 L9.66392931,4.79781705 C9.68195426,4.80523909 9.70004158,4.81278586 9.71800416,4.8208316 Z M10.6311642,17.2875468 C10.5943035,16.7603326 10.5783368,16.2312474 10.5841996,15.7034096 C10.9791268,15.8104366 11.3726195,15.9217672 11.7655509,16.0354054 C11.6952599,16.2830769 11.6361954,16.532183 11.5835551,16.7697505 C11.2629106,16.9368399 10.9452599,17.1094802 10.6311642,17.2875468 Z M2.92683992,14.2786902 C2.99338877,14.2042827 3.05893971,14.1290021 3.12361746,14.0527859 C3.22309771,14.1400416 3.32226611,14.2272349 3.42118503,14.3144283 C3.2564657,14.3004574 3.09168399,14.2887318 2.92683992,14.2786902 Z M2.6731185,20.5461338 L2.67392931,20.5443243 C2.74116424,20.554201 2.80839917,20.5646808 2.8756341,20.5748591 C2.83715177,20.6008702 2.79673597,20.6240163 2.75176715,20.6410555 C2.70767152,20.6578685 2.6460499,20.6073541 2.6731185,20.5461338 Z M9.68151767,17.8481913 C9.45742204,17.9860915 9.23594595,18.1269854 9.01627859,18.2699376 C8.99151767,18.082079 8.96912682,17.8933472 8.95079002,17.7033056 C9.19434511,17.7507069 9.43796258,17.7989813 9.68151767,17.8481913 Z M11.8499376,15.8734304 C11.8536175,15.9378586 11.8615385,16.0016632 11.8705821,16.0656549 C11.8356549,16.0554262 11.8005405,16.0455717 11.7655509,16.0354054 C11.8093971,15.8810395 11.8576091,15.7273597 11.9115593,15.5773597 C11.9166112,15.6609979 11.920104,15.7448233 11.9167983,15.828711 C11.9154886,15.86158 11.8793139,15.8808524 11.8499376,15.8734304 Z M10.1486279,22.4971405 C10.1153252,22.4903405 10.0820225,22.4836405 10.0486279,22.4770405 C10.0730069,22.4582405 10.0969259,22.4393405 10.121305,22.4205405 C10.1304126,22.4461405 10.1396122,22.4715405 10.1486279,22.4971405 Z M10.8109771,21.9347401 C10.569106,22.0937214 10.3310395,22.2557588 10.0979002,22.4205405 C10.0125156,22.1996881 9.93074844,21.977526 9.85309771,21.7538669 C10.1724948,21.8135551 10.4917672,21.8738669 10.8109771,21.9347401 Z M10.8243771,21.9291268 L10.8236771,21.9405268 L10.8109771,21.9381268 L10.8243771,21.9291268 Z M4.50037422,16.9047193 C4.57378378,16.8097921 4.64619543,16.7143035 4.71866944,16.6189397 C4.73806653,16.7290229 4.75634096,16.8392931 4.77467775,16.9496258 C4.68324324,16.9344075 4.59180873,16.9195634 4.50037422,16.9047193 Z M7.13276507,17.4721588 L7.15356507,17.4557588 C7.15526507,17.4667588 7.15686507,17.4778588 7.15836507,17.4889588 L7.13276507,17.4721588 Z M7.14573805,17.4628274 C7.1412474,17.4295389 7.13681913,17.3961831 7.13226611,17.3628274 C7.16787942,17.3698073 7.20343035,17.3768543 7.23898129,17.3838342 C7.20798337,17.4103442 7.17679834,17.4363845 7.14573805,17.4628274 Z M10.7001455,18.0608732 C10.6721414,17.8038462 10.6491892,17.5459459 10.6311642,17.2875468 C10.9452599,17.1094802 11.2629106,16.9368399 11.5835551,16.7697505 C11.5229314,17.0433056 11.4704782,17.3015177 11.4183992,17.5239917 C11.3666944,17.7449688 11.3203534,17.9665073 11.2765696,18.18842 C11.0845946,18.1450104 10.8924324,18.102474 10.7001455,18.0608732 Z M9.68151767,17.8481913 C9.99399168,17.6559044 10.310894,17.4692308 10.6311642,17.2875468 C10.6491892,17.5459459 10.6721414,17.8038462 10.7001455,18.0608732 C10.3609148,17.9875884 10.0212474,17.9168607 9.68151767,17.8481913 Z M9.01627859,18.2699376 C9.23594595,18.1269854 9.45742204,17.9860915 9.68151767,17.8481913 C10.0212474,17.9168607 10.3609148,17.9875884 10.7001455,18.0608732 C10.7511019,18.5303326 10.8185863,18.9967983 10.901289,19.4580873 C10.2777131,19.177921 9.66237006,18.880104 9.0568815,18.5647609 C9.04222453,18.4669023 9.02925156,18.36842 9.01627859,18.2699376 Z M8.7850104,18.4209979 C8.86160083,18.3701663 8.93906445,18.3202079 9.01627859,18.2699376 C9.02925156,18.36842 9.04222453,18.4669023 9.0568815,18.5647609 C8.96594595,18.5173597 8.87544699,18.46921 8.7850104,18.4209979 Z M9.50706861,15.4243035 C9.30455301,15.3740956 9.10128898,15.325447 8.89740125,15.2781081 C8.91885655,14.813763 8.9564657,14.3496674 9.00629938,13.8860083 C9.49303534,14.0945738 9.98582121,14.3071933 10.483659,14.5193763 C10.1607692,14.8227443 9.83513514,15.1241788 9.50706861,15.4243035 Z M8.87806653,15.9948649 C9.0887526,15.8051975 9.29850312,15.6150936 9.50706861,15.4243035 C9.30455301,15.3740956 9.10128898,15.325447 8.89740125,15.2781081 C8.88642412,15.5169854 8.88006237,15.7558628 8.87806653,15.9948649 Z M7.13226611,17.3628274 C7.13681913,17.3938254 7.1412474,17.4248233 7.14573805,17.4557588 L7.13276507,17.4659875 C7.06365904,17.4200208 6.99505198,17.3731809 6.92694387,17.3256549 C6.99536383,17.3380042 7.06384615,17.3504158 7.13226611,17.3628274 Z M6.78835759,14.8192516 C6.89357588,15.667921 7.00914761,16.5159044 7.13226611,17.3628274 C7.06384615,17.3504158 6.99536383,17.3380042 6.92694387,17.3256549 C6.33068607,16.9099584 5.76804574,16.4358212 5.22049896,15.9457796 C5.52318087,15.5308316 5.81831601,15.1111435 6.10883576,14.6883992 C6.33573805,14.7301871 6.56226611,14.7739709 6.78835759,14.8192516 Z M6.6735343,13.8546985 C6.7102079,14.176341 6.74850312,14.4977963 6.78835759,14.8192516 C6.56226611,14.7739709 6.33573805,14.7301871 6.10883576,14.6883992 C6.29893971,14.4117256 6.48717256,14.1338669 6.6735343,13.8546985 Z M0.124116424,16.7544075 C0.27997921,16.6368399 0.435031185,16.5183992 0.588773389,16.3988358 C1.22419958,16.4540956 1.85887734,16.5253846 2.4924948,16.6082121 C2.45313929,16.7380665 2.41534304,16.86842 2.37885655,16.9990852 C2.33076923,17.1713514 2.27164241,17.3107484 2.11141372,17.4029314 C1.97744283,17.4800208 1.80162162,17.5093971 1.64981289,17.5277963 C1.63671518,17.5293555 1.62561331,17.5258628 1.61719335,17.5193763 C1.62106029,17.6693763 1.54602911,17.7927443 1.41723493,17.8743867 C1.33297297,17.9277131 1.25276507,17.9680665 1.20586279,18.0603742 C1.16051975,18.1496881 1.14130977,18.2479834 1.09029106,18.3353015 C1.05941788,18.3881913 1.0052183,18.420499 0.949459459,18.4403326 C0.897754678,18.4586071 0.662681913,18.4302287 0.648835759,18.4851767 C0.628253638,18.5663825 0.64995842,18.6264449 0.595010395,18.6976091 C0.551912682,18.7532432 0.484802495,18.7877339 0.415446985,18.7911642 C0.114074844,18.8063825 0.0129106029,18.2820998 0.0214553015,18.0711019 C0.0269438669,17.9339501 0.0674844075,17.7971102 0.0896881497,17.6621414 C0.110519751,17.5348441 0.10029106,17.4071726 0.0951143451,17.2791892 C0.0903742204,17.1617464 0.090997921,17.0481081 0.124428274,16.9439501 C0.12037422,16.8808316 0.120935551,16.8175884 0.124116424,16.7544075 Z M4.71866944,16.6189397 C4.64619543,16.7143035 4.57378378,16.8097921 4.50037422,16.9047193 C3.87343035,16.802869 3.24505198,16.7078794 2.61555094,16.6241788 C2.61580042,16.6045322 2.61654886,16.5850728 2.61661123,16.5654262 C2.61704782,16.4487318 2.64704782,16.2939293 2.63419958,16.167131 C2.63058212,16.1776091 2.62659044,16.1880873 2.62309771,16.1986279 C2.57731809,16.3344699 2.53403326,16.4710603 2.4924948,16.6082121 C1.85887734,16.5253846 1.22419958,16.4540956 0.588773389,16.3988358 C1.42590437,15.7481289 2.2266736,15.0614969 2.92683992,14.2786902 C3.09168399,14.2887318 3.2564657,14.3004574 3.42118503,14.3144283 C3.4793763,14.3656965 3.53775468,14.417027 3.59569647,14.4683576 C3.88160083,14.72158 4.16619543,14.9830353 4.45222453,15.2459875 C4.5489605,15.702474 4.63821206,16.1600832 4.71866944,16.6189397 Z M2.92683992,14.2786902 C2.18738046,14.2339085 1.44636175,14.2309771 0.705467775,14.2843035 C0.808378378,14.0016424 0.918024948,13.7209771 1.02505198,13.4408732 C1.10900208,13.220894 1.22070686,13.0137006 1.3218711,12.8014553 C1.36122661,12.7190644 1.41081081,12.6412266 1.46045738,12.5636383 C2.0039501,13.0735759 2.56659044,13.5643035 3.12361746,14.0527859 C3.05893971,14.1290021 2.99338877,14.2042827 2.92683992,14.2786902 Z M5.30912682,21.4957173 C5.01735967,21.8374428 4.73725572,22.1910811 4.46893971,22.5546985 C3.85216216,22.6649064 3.23738046,22.8051143 2.64137214,22.9755717 C2.61074844,22.6032848 2.68983368,22.2029938 2.75819127,21.85921 C2.8439501,21.4283576 3.01690229,21.0222037 3.14469854,20.6038877 C3.85247401,20.6970062 4.55862786,20.806341 5.26334719,20.9247817 C5.27962578,21.1148233 5.29484407,21.3051767 5.30912682,21.4957173 Z M5.06594595,19.0150728 C5.14234927,19.6470686 5.20852391,20.2844906 5.26334719,20.9247817 C4.55862786,20.806341 3.85247401,20.6970062 3.14469854,20.6038877 C3.17120582,20.5171933 3.19546778,20.4296881 3.21692308,20.3414969 C3.83189189,19.8983576 4.45085239,19.4593347 5.06594595,19.0150728 Z M3.915842,12.9890644 C3.67334719,13.3640956 3.40814969,13.7176715 3.12361746,14.0527859 C2.56659044,13.5643035 2.0039501,13.0735759 1.46045738,12.5636383 C1.4945738,12.5103119 1.52869023,12.4571102 1.55950104,12.4025364 C1.54160083,12.3846362 1.53361746,12.3557588 1.55108108,12.326632 C1.59355509,12.2557173 1.65006237,12.1949688 1.70114345,12.1304158 C1.68505198,12.1340333 1.66852391,12.1372765 1.65162162,12.1396466 C1.62449064,12.1809356 1.54465696,12.1587942 1.55694387,12.1045322 C1.58900208,11.9638877 1.64239085,11.827422 1.70806653,11.6965696 C1.67968815,11.6869647 1.65898129,11.6539085 1.67039501,11.6208524 C1.71280665,11.4990437 1.76245322,11.3809771 1.81590437,11.263659 C1.86199584,11.1624948 1.90977131,10.9894179 1.98411642,10.9083368 C2.0939501,10.7883992 2.18220374,10.6523077 2.2635343,10.5119751 C2.24401247,10.5238877 2.22424116,10.5354262 2.20403326,10.546341 C2.15002079,10.5754678 2.10891892,10.5094179 2.12189189,10.4638254 C2.16006237,10.3297921 2.20765073,10.198815 2.26727651,10.0736383 C2.60831601,10.3248025 2.95446985,10.5679834 3.30486486,10.8044283 C3.5197921,11.5302911 3.72505198,12.2583992 3.915842,12.9890644 Z M5.33151767,1.49613306 C5.14496881,1.98405405 4.91669439,2.44989605 4.65879418,2.90151767 C4.00241164,2.86690229 3.34465696,2.8402079 2.68540541,2.81956341 C2.66837838,2.69239085 2.85286902,2.57295218 2.9810395,2.49692308 C2.97081081,2.48800416 2.96463617,2.47365904 2.96869023,2.4568815 C2.98621622,2.38365904 3.03031185,2.30850312 2.97692308,2.25467775 C2.92808732,2.20534304 2.9149896,2.11908524 2.90519751,2.05422037 C2.86970894,1.81902287 2.91018711,1.55719335 2.95621622,1.32742204 C2.96232848,1.2972973 2.98995842,1.2777131 3.02045738,1.2887526 C3.08900208,1.31370062 3.14893971,1.35511435 3.21723493,1.38143451 C3.32351351,1.42234927 3.44575884,1.43825364 3.55503119,1.47174636 C3.76945946,1.53767152 4.02149688,1.66577963 4.24783784,1.65642412 C4.25650728,1.6560499 4.26392931,1.65785863 4.27066528,1.66079002 C4.30203742,1.63422037 4.33640333,1.61139293 4.37226611,1.59049896 C4.35155925,1.55893971 4.32948025,1.51446985 4.35018711,1.47941788 C4.35424116,1.4724948 4.3635343,1.46906445 4.37108108,1.46968815 C4.40931393,1.47274428 4.43738046,1.51740125 4.45970894,1.54440748 C4.47898129,1.53530146 4.49831601,1.52656965 4.51796258,1.51827443 L4.50823285,1.50243243 C4.49064449,1.47817048 4.4810395,1.45197505 4.47286902,1.42378378 C4.46476091,1.39596674 4.50492723,1.3727027 4.52600832,1.39122661 C4.55108108,1.4131185 4.59074844,1.44430353 4.61320166,1.47960499 C4.62449064,1.47530146 4.635842,1.4706237 4.64713098,1.46638254 C4.63066528,1.4283368 4.62199584,1.38611227 4.64463617,1.35168399 C4.65642412,1.33372141 4.68424116,1.334158 4.6970894,1.35043659 C4.71143451,1.36864865 4.71817048,1.39022869 4.72852391,1.41056133 C4.73195426,1.41735967 4.73569647,1.42409563 4.73925156,1.43089397 L4.74960499,1.42683992 C4.75559252,1.42446985 4.76170478,1.42266112 4.76769231,1.42035343 C4.75390852,1.37825364 4.74735967,1.32505198 4.77848233,1.29748441 C4.7883368,1.28869023 4.80517672,1.28856549 4.81553015,1.29648649 C4.84185031,1.31675676 4.85039501,1.35380457 4.86174636,1.3866736 C4.87546778,1.38193347 4.88893971,1.37644491 4.90272349,1.37195426 C4.89274428,1.33577963 4.88968815,1.29474012 4.9029106,1.26692308 C4.91844075,1.23442827 4.96072765,1.23286902 4.9775052,1.26536383 C4.98829522,1.28638254 4.99203742,1.31282744 4.99727651,1.33596674 L4.99970894,1.34345114 C5.02384615,1.33652807 5.04773389,1.32885655 5.07193347,1.3224948 L5.0724948,1.3127027 C5.07392931,1.28326403 5.07648649,1.2533264 5.09301455,1.22806653 L5.10442827,1.21814969 C5.17846154,1.312079 5.25417879,1.40476091 5.33151767,1.49613306 Z M6.42492723,2.61480249 C6.14675676,2.36719335 5.87226611,2.09787942 5.61037422,1.81222453 C5.57794179,1.61925156 5.54507277,1.42621622 5.51189189,1.23336798 C5.71677755,1.20293139 5.92390852,1.19176715 6.13079002,1.20580042 C6.22721414,1.21241164 6.34091476,1.2129106 6.43266112,1.2533264 C6.43902287,1.09340956 6.45580042,0.933804574 6.50133056,0.77993763 C6.55914761,0.585093555 6.70097713,0.446881497 6.85553015,0.324137214 L6.85640333,0.323513514 C6.8056341,0.65962578 6.76640333,0.998482328 6.70727651,1.32779626 C6.62906445,1.76326403 6.53538462,2.19224532 6.42492723,2.61480249 Z M4.46893971,22.5546985 C4.17555094,22.9523077 3.8962578,23.3617048 3.63143451,23.780894 C3.4108316,23.7638046 3.19016632,23.7502079 2.96956341,23.7393555 C2.96681913,23.7067983 2.96532225,23.6744283 2.96476091,23.6417464 C2.93644491,23.6440541 2.90594595,23.6265281 2.90076923,23.5935343 C2.87912682,23.4565073 2.88654886,23.319106 2.89035343,23.1816424 C2.87214137,23.2526819 2.85935551,23.3249064 2.85648649,23.3990021 C2.85417879,23.4611227 2.76442827,23.4656133 2.74259875,23.4139709 C2.68446985,23.2765696 2.65397089,23.128316 2.64137214,22.9755717 C3.23738046,22.8051143 3.85216216,22.6649064 4.46893971,22.5546985 Z M2.38534304,3.89288981 C2.74297297,4.18340956 3.10902287,4.43906445 3.49110187,4.66434511 C3.3464657,4.86442827 3.20114345,5.0639501 3.05482328,5.26272349 C2.84931393,5.2329106 2.64492723,5.16598753 2.54494802,5.00382536 C2.29066528,4.92511435 2.10380457,4.67126819 2.02602911,4.40931393 C1.98948025,4.4008316 1.95486486,4.38636175 1.9291684,4.36939709 C1.8550104,4.32037422 1.80193347,4.20442827 1.84446985,4.12602911 C1.8177131,4.00640333 1.92442827,3.8870894 1.99677755,3.80033264 C2.03382536,3.75580042 2.0712474,3.71239085 2.10891892,3.66954262 C2.2010395,3.74214137 2.2922869,3.8172973 2.38534304,3.89288981 Z M6.92694387,17.3256549 C6.99505198,17.3731809 7.06365904,17.4200208 7.13276507,17.4659875 C6.45673597,17.9986279 5.76411642,18.510499 5.06594595,19.0150728 C5.00519751,18.5126195 4.93858628,18.0133472 4.8649896,17.519501 C4.8366736,17.3292723 4.80617464,17.1393555 4.77467775,16.9496258 C5.41004158,17.0548441 6.04384615,17.1664241 6.67565489,17.2802495 C6.75935551,17.2952807 6.8431185,17.310499 6.92694387,17.3256549 Z M12.1848025,26.5766944 C11.8743867,26.0668815 11.5775676,25.5500208 11.2982121,25.0254886 C11.5586071,25.0791892 11.8186279,25.1346362 12.0783368,25.1915177 C12.085447,25.2233264 12.0931809,25.2550104 12.0998545,25.2868815 C12.1078378,25.3249272 12.0709148,25.352183 12.0370478,25.3506237 C12.0288773,25.3501247 12.0230146,25.3497505 12.0167775,25.3492516 C12.0319958,25.4993763 12.1107069,25.6423909 12.1558004,25.7844075 C12.1999584,25.9229314 12.2156757,26.05921 12.2067568,26.2037838 C12.1989605,26.3287734 12.1906653,26.4524532 12.1848025,26.5766944 Z M11.953368,23.140104 C11.9196114,23.0685031 11.8862283,22.9965281 11.853368,22.9241164 C11.8781626,22.9314761 11.9030319,22.9383992 11.9276772,22.9458212 C11.9346227,23.0106237 11.9436592,23.0753015 11.953368,23.140104 Z M10.5883784,26.2407069 C11.1265696,26.3544075 11.6578378,26.4836383 12.1822453,26.6295842 C12.1807484,26.6675676 12.1797505,26.7058004 12.1789397,26.7440956 C11.6210395,26.8859875 11.0715593,27.0504574 10.5351767,27.2386279 C10.5521414,26.9059459 10.5701663,26.573264 10.5883784,26.2407069 Z M10.4672557,28.7771726 C10.4855301,28.2642412 10.5090437,27.7513721 10.5351767,27.2386279 C11.0715593,27.0504574 11.6210395,26.8859875 12.1789397,26.7440956 C12.1786902,26.7553846 12.1781289,26.7664865 12.1779418,26.7778378 C12.1750728,26.9600208 12.1118295,27.1504366 12.0479626,27.3205198 C12.0399792,27.4089605 12.0290021,27.4974012 12.0144075,27.5865281 C11.971185,27.8510395 11.9429938,28.1144906 11.9098753,28.3800624 C11.8592308,28.786341 11.6123077,29.101684 11.3091268,29.3597089 C11.282183,29.3827235 11.2539293,29.4040541 11.225738,29.4256341 C11.0127443,29.1873181 10.7537838,28.9714553 10.4672557,28.7771726 Z M11.9426819,21.1001663 C11.9338254,21.0908108 11.9261538,21.0805821 11.917921,21.0708524 C11.9373181,21.1195634 11.9574012,21.1681497 11.9766112,21.2169854 C11.7810811,21.3291892 11.5876091,21.4443243 11.3964449,21.5620166 C11.2433264,21.0407277 11.1102911,20.5068399 10.9986486,19.9640333 C11.016237,19.8178378 11.0350104,19.6717672 11.0549064,19.5258212 C11.3416216,19.6529938 11.6297713,19.7770478 11.9195426,19.8971102 C11.9370686,20.0766736 11.9573389,20.2559875 11.9781081,20.4353015 C11.9856549,20.5003534 11.902079,20.5164449 11.8733888,20.4636798 C11.8630353,20.4419127 11.8496881,20.4228898 11.8345322,20.405738 C11.8594802,20.6310811 11.9909563,20.8388981 12.0354262,21.0613098 C12.0465904,21.1173805 11.9752391,21.1345322 11.9426819,21.1001663 Z M11.5559252,22.0782536 C11.5005405,21.9077339 11.4474012,21.7355925 11.3964449,21.5620166 C11.5876091,21.4443243 11.7810811,21.3291892 11.9766112,21.2169854 C12.0223909,21.3331185 12.0630561,21.4504366 12.0752183,21.5758628 C12.0788981,21.6135343 12.0452183,21.6332432 12.0164657,21.6296258 C12.0664241,21.7725156 12.0535135,21.9444075 12.0612474,22.0899168 C12.0627443,22.1191684 12.0644906,22.1482952 12.066237,22.1775468 C11.8961538,22.1440541 11.7260083,22.1113721 11.5559252,22.0782536 Z M11.853368,22.9241164 C11.7482121,22.6470062 11.6489813,22.3649064 11.5559252,22.0782536 C11.7260083,22.1113721 11.8961538,22.1440541 12.066237,22.1775468 C12.0779626,22.3790021 12.0901871,22.5810187 12.0553222,22.7810395 C12.049896,22.8116008 12.0132848,22.8435343 11.98079,22.8250104 C11.9526611,22.8090437 11.9289605,22.7906445 11.9061331,22.7709979 C11.9064449,22.8293763 11.9103119,22.8876299 11.9154262,22.9458212 C11.8948441,22.9383992 11.8740748,22.9314761 11.853368,22.9241164 Z M10.7767983,22.6087734 C11.1420374,22.6968399 11.5028482,22.8017464 11.853368,22.9241164 C11.8808108,22.9965281 11.9086902,23.0685031 11.9368815,23.140104 C11.9557173,23.2899792 11.9758628,23.4399168 11.9737422,23.5911019 C11.9728067,23.6564033 11.9171726,23.6930769 11.8573597,23.685842 C11.8472557,23.684657 11.8380873,23.6816008 11.8293555,23.6772349 C11.8395218,23.8297297 11.8635343,23.9872141 11.8373389,24.1340333 C11.9048233,24.4907277 12.0001247,24.8376299 12.0783368,25.1915177 C11.8186279,25.1346362 11.5586071,25.0791892 11.2982121,25.0254886 C11.0930146,24.6399168 10.8971102,24.2503534 10.712183,23.8561746 C10.7322661,23.4401663 10.752973,23.0242827 10.7767983,22.6087734 Z M5.43935551,26.5642827 C5.24176715,26.7809563 5.04686071,27.0001247 4.85482328,27.2218503 C4.37463617,27.1879834 3.89320166,27.1640956 3.41201663,27.143763 C3.44320166,26.8846154 3.4316632,26.6189813 3.42286902,26.3596466 C3.42174636,26.3274636 3.44114345,26.3065073 3.46453222,26.2974636 L3.46471933,26.2842412 C3.46284823,26.1250104 3.41644491,25.9811227 3.37122661,25.8303119 C3.33948025,25.7245946 3.31316008,25.6175052 3.28758836,25.5102911 C4.00945946,25.5069231 4.73264033,25.5258836 5.45494802,25.5672973 C5.45326403,25.9009771 5.44827443,26.2335343 5.43935551,26.5642827 Z M3.28758836,25.5102911 C3.25309771,25.3659667 3.22029106,25.2212682 3.17962578,25.0785655 C3.14438669,24.9546985 3.10852391,24.8312058 3.07808732,24.7064657 C3.2547817,24.393368 3.43945946,24.0846985 3.63143451,23.780894 C4.23411642,23.8275468 4.83636175,23.8960915 5.43735967,23.9787318 C5.45195426,24.5103119 5.45762994,25.0402079 5.45494802,25.5672973 C4.73264033,25.5258836 4.00945946,25.5069231 3.28758836,25.5102911 Z M6.56819127,28.3176923 C6.51536383,28.4990644 6.34677755,28.6829314 6.20401247,28.801684 C5.97106029,28.9952183 5.65253638,29.0559044 5.34798337,29.0953846 C5.36862786,28.4864033 5.39276507,27.8769854 5.41602911,27.2663202 C5.78357588,27.2993139 6.14993763,27.3406029 6.51455301,27.3923701 L6.51380457,27.3944283 C6.46864865,27.5028898 6.4181289,27.5963202 6.42361746,27.718815 C6.42804574,27.8193555 6.48505198,27.9210811 6.517921,28.0147609 C6.55696466,28.1260915 6.60174636,28.2021206 6.56819127,28.3176923 Z M9.21523909,28.1138669 C9.65357588,28.2974844 10.085052,28.5180873 10.4672557,28.7771726 C10.4552807,29.1134096 10.4456133,29.4495842 10.4391268,29.7859459 C10.354553,29.8038462 10.2696674,29.8199376 10.1869023,29.8395218 C9.94765073,29.8960915 9.70952183,29.9440541 9.46297297,29.9483576 C9.20045738,29.9527235 8.93794179,29.9110603 8.68004158,29.8664657 C8.46430353,29.8291684 8.25006237,29.785447 8.03313929,29.7555094 C7.88837838,29.735738 7.75241164,29.6990644 7.65205821,29.5877339 C7.38280665,29.2884823 7.87659044,28.9121414 8.09014553,28.7822869 C8.27189189,28.6719543 8.47135135,28.5922453 8.66494802,28.5059252 C8.86908524,28.4146778 9.10010395,28.3193763 9.21461538,28.1151143 L9.21523909,28.1138669 Z M10.4672557,28.7771726 C10.7537838,28.9714553 11.0127443,29.1873181 11.225738,29.4256341 C11.0993139,29.5219958 10.9620374,29.6043243 10.8180873,29.6713098 C10.6984615,29.7268815 10.5691684,29.7585655 10.4391268,29.7859459 C10.4456133,29.4495842 10.4552807,29.1134096 10.4672557,28.7771726 Z M2.96956341,23.7393555 C3.19016632,23.7502079 3.4108316,23.7638046 3.63143451,23.780894 C3.43945946,24.0846985 3.2547817,24.393368 3.07808732,24.7064657 C3.05981289,24.6317464 3.04303534,24.5567152 3.03093555,24.480499 C3.01846154,24.4026611 3.00698545,24.3128482 3.01110187,24.2260291 C2.99488565,24.2099376 2.98827443,24.1849272 3.00642412,24.1594802 C3.06349272,24.0795842 2.97898129,23.8440748 2.97,23.7482121 L2.96956341,23.7393555 Z M8.27825364,24.4471933 C8.36401247,24.9235135 8.45120582,25.3999584 8.52935551,25.8775884 C8.50802495,25.8745322 8.48663202,25.8717256 8.4654262,25.8686694 C8.44247401,25.7907069 8.42108108,25.7125572 8.40043659,25.634657 C8.36931393,25.5169023 8.34330561,25.3980249 8.31960499,25.2785863 C7.96627859,25.3561123 7.6370894,25.5304366 7.32997921,25.7248441 C6.99661123,25.687921 6.66261954,25.6554262 6.32825364,25.6279834 C6.76615385,25.1845946 7.21746362,24.754553 7.68280665,24.3399168 C7.88158004,24.3752183 8.08004158,24.4111435 8.27825364,24.4471933 Z M10.5883784,26.2407069 C10.6128274,25.792578 10.6376507,25.3445114 10.6609148,24.8963825 C10.8734719,24.9384823 11.0859044,24.9816424 11.2982121,25.0254886 C11.5775676,25.5500208 11.8743867,26.0668815 12.1848025,26.5766944 C12.1839917,26.5943451 12.1829938,26.6118711 12.1822453,26.6295842 C11.6578378,26.4836383 11.1265696,26.3544075 10.5883784,26.2407069 Z M7.41492723,22.2493971 C6.75935551,22.2666736 6.06910603,22.3218711 5.37024948,22.4146154 C5.35247401,22.1081289 5.332079,21.8017048 5.30912682,21.4957173 C5.4508316,21.3298129 5.59503119,21.1665904 5.74216216,21.0063617 C6.4156341,21.1231185 7.08779626,21.2458628 7.75858628,21.3681705 C7.80679834,21.6613721 7.85519751,21.9543867 7.90390852,22.2472141 C7.73800416,22.244657 7.57459459,22.2452807 7.41492723,22.2493971 Z M5.45494802,25.5672973 C5.74621622,25.5840125 6.03735967,25.6040956 6.32825364,25.6279834 C6.02582121,25.9340956 5.7293763,26.2461954 5.43935551,26.5642827 C5.44827443,26.2335343 5.45326403,25.9009771 5.45494802,25.5672973 Z M5.26334719,20.9247817 C5.42301455,20.9516008 5.58261954,20.9788565 5.74216216,21.0063617 C5.59503119,21.1665904 5.4508316,21.3298129 5.30912682,21.4957173 C5.29484407,21.3051767 5.27962578,21.1148233 5.26334719,20.9247817 Z M5.30912682,21.4957173 C5.332079,21.8017048 5.35247401,22.1081289 5.37024948,22.4146154 C5.07068607,22.4542827 4.76975052,22.5008108 4.46893971,22.5546985 C4.73725572,22.1910811 5.01735967,21.8374428 5.30912682,21.4957173 Z M7.44074844,19.3990229 C6.83962578,19.8886279 6.27343035,20.4281289 5.74216216,21.0063617 C5.58261954,20.9788565 5.42301455,20.9516008 5.26334719,20.9247817 C5.20852391,20.2844906 5.14234927,19.6470686 5.06594595,19.0150728 C5.76411642,18.510499 6.45673597,17.9986279 7.13276507,17.4659875 L7.14873181,17.4764657 C7.24253638,18.1179418 7.34002079,18.7588565 7.44074844,19.3990229 Z M4.46893971,22.5546985 C4.76975052,22.5008108 5.07068607,22.4542827 5.37024948,22.4146154 C5.40037422,22.936341 5.42301455,23.4581913 5.43735967,23.9787318 C4.83636175,23.8960915 4.23411642,23.8275468 3.63143451,23.780894 C3.8962578,23.3617048 4.17555094,22.9523077 4.46893971,22.5546985 Z M7.68280665,24.3399168 C7.21746362,24.754553 6.76615385,25.1845946 6.32825364,25.6279834 C6.03735967,25.6040956 5.74621622,25.5840125 5.45494802,25.5672973 C5.45762994,25.0402079 5.45195426,24.5103119 5.43735967,23.9787318 C6.18860707,24.0820166 6.93767152,24.2073805 7.68280665,24.3399168 Z M8.4654262,25.8686694 C8.48663202,25.8717256 8.50802495,25.8745322 8.52935551,25.8775884 C8.54781705,25.9906653 8.56503119,26.1036798 8.58237006,26.2167568 C8.53814969,26.1026819 8.49985447,25.9861123 8.4654262,25.8686694 Z M10.6299792,14.581684 C10.6351559,14.5095218 10.6405821,14.437422 10.6465696,14.365447 C11.1468399,13.8931809 11.6408732,13.416237 12.1289813,12.9337422 C12.1741372,13.0157588 12.2239085,13.097027 12.2432432,13.1834096 C12.2548441,13.2353638 12.192973,13.2545114 12.1569854,13.2339293 C12.103659,13.203368 12.0598753,13.1598337 12.0195842,13.1128067 C12.0432225,13.3196881 12.115447,13.5240125 12.125738,13.733763 C12.1312266,13.8472141 12.1395842,14.0517256 12.0039293,14.0957588 C11.9842204,14.1021206 11.9653846,14.096632 11.9517879,14.085343 C11.9299584,14.1252599 11.9469854,14.251684 11.9347609,14.2885447 C11.9275884,14.3099376 11.9085655,14.3179834 11.8891684,14.3172349 C11.900395,14.5390852 11.9618295,14.7565073 11.9180457,14.9779834 C11.9091892,15.0226403 11.9041996,15.0673597 11.9007069,15.1121414 C11.4739709,14.9378794 11.0501663,14.7601871 10.6299792,14.581684 Z M10.5841996,15.7034096 C10.5883784,15.3284407 10.6033472,14.9540956 10.6299792,14.581684 C11.0501663,14.7601871 11.4739709,14.9378794 11.9007069,15.1121414 C11.88842,15.2668191 11.9023285,15.4218711 11.9115593,15.5773597 C11.8576091,15.7273597 11.8093971,15.8810395 11.7655509,16.0354054 C11.3726195,15.9217672 10.9791268,15.8104366 10.5841996,15.7034096 Z M11.4183992,17.5239917 C11.4704782,17.3015177 11.5229314,17.0433056 11.5835551,16.7697505 C11.6804158,16.7192931 11.7773389,16.6688981 11.8747609,16.6195634 C11.8808732,16.7050728 11.8735759,16.7951975 11.8828067,16.8703534 C11.9108732,17.0990021 11.9216008,17.3302079 11.9174844,17.5604158 C11.9171102,17.5839293 11.9045738,17.5973389 11.8882328,17.6028274 C11.9609563,17.8314761 12.0205198,18.062183 12.0145322,18.3066736 C12.0140333,18.3279418 11.9978794,18.3437214 11.9789189,18.3511435 C11.7450936,18.2955094 11.5110187,18.2412474 11.2765696,18.18842 C11.3203534,17.9665073 11.3666944,17.7449688 11.4183992,17.5239917 Z M11.8771933,16.5195218 C11.8740748,16.5258836 11.868711,16.5306237 11.8625988,16.5342412 C11.8690229,16.5616216 11.8726403,16.5903119 11.8747609,16.6195634 C11.7773389,16.6688981 11.6804158,16.7192931 11.5835551,16.7697505 C11.6361954,16.532183 11.6952599,16.2830769 11.7655509,16.0354054 C11.8005405,16.0455717 11.8356549,16.0554262 11.8705821,16.0656549 C11.8761331,16.1046985 11.8820582,16.1438046 11.887921,16.1831601 C11.9051351,16.2977963 11.9297089,16.4136798 11.8771933,16.5195218 Z M10.6465696,14.365447 C10.7221622,13.4618919 10.8658004,12.5708108 11.0830353,11.7092931 C11.396632,11.8391476 11.7111642,11.9663825 12.0267568,12.090499 C12.0587526,12.2227859 12.0805198,12.3585655 12.1209979,12.4882952 C12.1490644,12.5781705 12.1699584,12.6654886 12.1548649,12.7595426 C12.147131,12.8076299 12.0944283,12.816237 12.063368,12.7849272 L12.0587526,12.7801871 C12.0750312,12.8325156 12.1011019,12.8832848 12.1289813,12.9337422 C11.6408732,13.416237 11.1468399,13.8931809 10.6465696,14.365447 Z M10.5263202,7.17735967 C10.5853846,7.22993763 10.6130146,7.29480249 10.6428898,7.38049896 C10.6592931,7.42765073 10.6766944,7.47449064 10.6933472,7.52151767 C10.4199792,8.00338877 10.1383784,8.48182952 9.84586279,8.95777547 C9.99592516,8.20952183 10.1440541,7.46407484 10.2748441,6.72193347 C10.3312266,6.73390852 10.3874844,6.74588358 10.4437422,6.757921 C10.4514137,6.78449064 10.4588358,6.81081081 10.4665073,6.83644491 C10.4993763,6.94565489 10.528815,7.06203742 10.5263202,7.17735967 Z M12.0267568,12.090499 C11.7111642,11.9663825 11.396632,11.8391476 11.0830353,11.7092931 C11.2330353,11.1147817 11.4184615,10.5346154 11.6404366,9.97397089 C11.7649272,10.321684 11.8468815,10.6700832 11.9443035,11.0254678 C11.955842,11.0678794 11.9300832,11.1106653 11.8823077,11.1062994 C11.8589813,11.1041788 11.8372765,11.0918919 11.8164449,11.0761746 C11.8334719,11.1523285 11.8782536,11.2264865 11.908815,11.2945946 C11.9684407,11.4270062 12.0127235,11.5670894 12.0585655,11.7046154 C12.076341,11.7580665 12.0010603,11.8111435 11.9676923,11.757131 C11.932079,11.6997505 11.8892308,11.6482328 11.8458836,11.5972141 C11.8937838,11.753264 11.9789189,11.9021414 12.0193971,12.0590021 C12.022079,12.0694179 12.024262,12.0800208 12.0267568,12.090499 Z M9.44338877,11.0124948 C9.57093555,10.3256757 9.7089605,9.64060291 9.84586279,8.95777547 C10.1383784,8.48182952 10.4199792,8.00338877 10.6933472,7.52151767 C10.7380042,7.64762994 10.7825364,7.7737422 10.8286279,7.89941788 C10.9576715,8.25081081 11.1213306,8.58636175 11.2553015,8.93550936 C11.3865281,9.27723493 11.513763,9.62164241 11.6376923,9.9660499 L11.6404366,9.97397089 C11.4184615,10.5346154 11.2330353,11.1147817 11.0830353,11.7092931 C10.5344283,11.4822661 9.98850312,11.2481289 9.44338877,11.0124948 Z M10.7767983,22.6087734 C10.7896466,22.3844906 10.8037422,22.1602079 10.8188981,21.936237 C11.0646362,21.9831393 11.3103119,22.0306029 11.5559252,22.0782536 C11.6489813,22.3649064 11.7482121,22.6470062 11.853368,22.9241164 C11.5028482,22.8017464 11.1420374,22.6968399 10.7767983,22.6087734 Z M10.8188981,21.936237 L10.8193347,21.9291268 C11.0092516,21.8045114 11.2016008,21.6819543 11.3964449,21.5620166 C11.4474012,21.7355925 11.5005405,21.9077339 11.5559252,22.0782536 C11.3103119,22.0306029 11.0646362,21.9831393 10.8188981,21.936237 Z M11.3964449,21.5620166 C11.2016008,21.6819543 11.0092516,21.8045114 10.8193347,21.9291268 C10.8638669,21.2723077 10.9202495,20.6167983 10.9986486,19.9640333 C11.1102911,20.5068399 11.2433264,21.0407277 11.3964449,21.5620166 Z M10.712183,23.8561746 C10.7322661,23.4401663 10.752973,23.0242827 10.7767983,22.6087734 C10.5577547,22.5560083 10.3372765,22.5092308 10.1164241,22.468316 C10.299106,22.9371518 10.4980042,23.3996881 10.712183,23.8561746 Z M10.8109771,21.9347401 L10.8188981,21.936237 C10.8037422,22.1602079 10.7896466,22.3844906 10.7767983,22.6087734 C10.5577547,22.5560083 10.3372765,22.5092308 10.1164241,22.468316 C10.1103119,22.4523493 10.1040748,22.4365073 10.0979002,22.4205405 C10.3310395,22.2557588 10.569106,22.0937214 10.8109771,21.9347401 Z M10.7001455,18.0608732 C10.8924324,18.102474 11.0845946,18.1450104 11.2765696,18.18842 C11.1889397,18.6325572 11.1159667,19.0785031 11.0549064,19.5258212 C11.003763,19.5031809 10.9523701,19.4809771 10.901289,19.4580873 C10.8185863,18.9967983 10.7511019,18.5303326 10.7001455,18.0608732 Z M11.0549064,19.5258212 C11.1159667,19.0785031 11.1889397,18.6325572 11.2765696,18.18842 C11.5110187,18.2412474 11.7450936,18.2955094 11.9789189,18.3511435 C11.9698753,18.3547609 11.9604574,18.3570062 11.9512266,18.3560083 C11.900894,18.3507692 11.9138046,18.5830977 11.9133056,18.6129106 C11.9113721,18.7302287 11.8869854,18.8705613 11.8216216,18.9702287 C11.832474,19.0294179 11.8360291,19.0899792 11.842079,19.1506653 C11.8569231,19.3006029 11.882869,19.4494802 11.8937214,19.5997921 C11.9009563,19.6990852 11.9099376,19.7980665 11.9195426,19.8971102 C11.6297713,19.7770478 11.3416216,19.6529938 11.0549064,19.5258212 Z M10.9986486,19.9640333 C10.964158,19.7961331 10.9316632,19.627422 10.901289,19.4580873 C10.9523701,19.4809771 11.003763,19.5031809 11.0549064,19.5258212 C11.0350104,19.6717672 11.016237,19.8178378 10.9986486,19.9640333 Z M9.0568815,18.5647609 C9.66237006,18.880104 10.2777131,19.177921 10.901289,19.4580873 C10.9316632,19.627422 10.964158,19.7961331 10.9986486,19.9640333 C10.9202495,20.6167983 10.8638669,21.2723077 10.8193347,21.9291268 L10.8109771,21.9347401 C10.4917672,21.8738669 10.1724948,21.8135551 9.85309771,21.7538669 C9.49540541,20.7233888 9.22178794,19.6621622 9.0568815,18.5647609 Z" id="Combined-Shape"></path>
                        </g>
                        <path d="M8.66943867,3.05613306 C8.66943867,3.05613306 8.95726266,3.43150555 9.10602911,3.61746362 C9.25479555,3.80342169 9.16839917,3.8045738 9.16839917,3.8045738 C9.16839917,3.8045738 8.74661663,4.25067667 8.48232848,4.3035343 C8.21804033,4.35639194 7.67151767,3.61746362 7.67151767,3.61746362 L8.66943867,3.05613306 Z" id="Path-2"></path>
                    </g>
                </g>
            </g>
        </g>
    </g>
</svg>